<svg viewBox="0 0 16 16" xmlns="http://www.w3.org/2000/svg" aria-hidden="true" role="presentation" focusable="false" style="display: block; height: 14px; width: 14px; fill: currentcolor;"><path d="M7.57 1.1L5.51 5.24l-4.57.65a.5.5 0 00-.29.14l-.06.1c-.1.2-.11.27-.03.44l.1.18 3.3 3.23-.8 4.55a.5.5 0 00.05.32l.07.08c.16.17.22.2.41.17l.2-.04 4.1-2.13 4.08 2.16c.1.06.21.07.33.05l.08-.04c.21-.1.26-.15.3-.34l.02-.2-.77-4.55 3.32-3.22a.5.5 0 00.15-.3l-.01-.1c-.05-.3-.08-.3-.42-.46l-4.57-.68L8.47 1.1a.5.5 0 00-.9 0z"/></svg>